# xmcd
#
# Track frame offsets:
#	150
#	18480
#	35217
#	50767
#	63312
#	81320
#	100197
#	114785
#	135935
#	156602
#	174707
#	189127
#	208860
#	220197
#	242735
#
# Disc length: 3599 seconds
#
# Revision: 1
# Processed by: cddbd v1.5.1PL0 Copyright (c) Steve Scherf et al.
# Submitted via: EasyCDDAExtractor 7.0.6.1
#
DISCID=d40e0d0f
DTITLE=Joe Longthorne - Joe Longthorne Especially For You
DYEAR=1900
DGENRE=Oldies
TTITLE0=Always On My Mind
TTITLE1=It Was Almost Like A Song
TTITLE2=Danny Boy
TTITLE3=I'd Be A Legend In My Time
TTITLE4=When Your Old Wedding Ring Was New
TTITLE5=You've The Best Thing That Ever Happened To Me
TTITLE6=Crying In The Rain
TTITLE7=Joanna
TTITLE8=Wind Beneath My Wings
TTITLE9=One Love in A Million
TTITLE10=Seven Wonders Of The World
TTITLE11=Everyt\\body Loves Me
TTITLE12=Morning Has Broken
TTITLE13=Bridge Over Troubled Water
TTITLE14=If I Never Sing Another Song
EXTD=
EXTT0=
EXTT1=
EXTT2=
EXTT3=
EXTT4=
EXTT5=
EXTT6=
EXTT7=
EXTT8=
EXTT9=
EXTT10=
EXTT11=
EXTT12=
EXTT13=
EXTT14=
PLAYORDER=
